# xmcd
#
# Track frame offsets:
# 150
# 15530
# 35522
# 55780
# 72765
# 94635
# 112057
# 135617
# 158740
# 179825
# 200037
# 218830
# 241170
#
# Disc length: 3501 seconds
#
#
# Revision: 0
# Processed by: cddbd v1.5.2PL0 Copyright (c) Steve Scherf et al.
# Submitted via: FreeRIP 2.951 
#
DISCID=b60dab0d
DTITLE=Gary Stier - The Albatross
DYEAR=2002
DGENRE=Country
TTITLE0=This Ain't Nowhere
TTITLE1=Fool Enough
TTITLE2=Miss America and I
TTITLE3=Good Day
TTITLE4=Coming Up Roses
TTITLE5=Stayed
TTITLE6=Ragged Out Heart
TTITLE7=Evil Wind
TTITLE8=What You Don't Need
TTITLE9=All My Fault
TTITLE10=Tied To The Tracks
TTITLE11=One Man's Ceiling
TTITLE12=Let It All Come Down
EXTD=
EXTT0=
EXTT1=
EXTT2=
EXTT3=
EXTT4=
EXTT5=
EXTT6=
EXTT7=
EXTT8=
EXTT9=
EXTT10=
EXTT11=
EXTT12=
PLAYORDER=
